<svg id="visual" viewBox="0 0 900 600" width="900" height="600" xmlns="http://www.w3.org/2000/svg" xmlns:xlink="http://www.w3.org/1999/xlink" version="1.1"><rect x="0" y="0" width="900" height="600" fill="#001520"></rect><path d="M0 172L21.5 174.8C43 177.7 86 183.3 128.8 192.3C171.7 201.3 214.3 213.7 257.2 222.7C300 231.7 343 237.3 385.8 236.8C428.7 236.3 471.3 229.7 514.2 223.7C557 217.7 600 212.3 642.8 204.3C685.7 196.3 728.3 185.7 771.2 190.5C814 195.3 857 215.7 878.5 225.8L900 236L900 0L878.5 0C857 0 814 0 771.2 0C728.3 0 685.7 0 642.8 0C600 0 557 0 514.2 0C471.3 0 428.7 0 385.8 0C343 0 300 0 257.2 0C214.3 0 171.7 0 128.8 0C86 0 43 0 21.5 0L0 0Z" fill="#1a3d47"></path><path d="M0 186L21.5 185C43 184 86 182 128.8 175.7C171.7 169.3 214.3 158.7 257.2 153.7C300 148.7 343 149.3 385.8 144.7C428.7 140 471.3 130 514.2 132.8C557 135.7 600 151.3 642.8 163.3C685.7 175.3 728.3 183.7 771.2 181.2C814 178.7 857 165.3 878.5 158.7L900 152L900 0L878.5 0C857 0 814 0 771.2 0C728.3 0 685.7 0 642.8 0C600 0 557 0 514.2 0C471.3 0 428.7 0 385.8 0C343 0 300 0 257.2 0C214.3 0 171.7 0 128.8 0C86 0 43 0 21.5 0L0 0Z" fill="#193b45"></path><path d="M0 102L21.5 110.8C43 119.7 86 137.3 128.8 138.3C171.7 139.3 214.3 123.7 257.2 121C300 118.3 343 128.7 385.8 131.3C428.7 134 471.3 129 514.2 132.5C557 136 600 148 642.8 151.7C685.7 155.3 728.3 150.7 771.2 144.3C814 138 857 130 878.5 126L900 122L900 0L878.5 0C857 0 814 0 771.2 0C728.3 0 685.7 0 642.8 0C600 0 557 0 514.2 0C471.3 0 428.7 0 385.8 0C343 0 300 0 257.2 0C214.3 0 171.7 0 128.8 0C86 0 43 0 21.5 0L0 0Z" fill="#173a44"></path><path d="M0 74L21.5 73.2C43 72.3 86 70.7 128.8 70.2C171.7 69.7 214.3 70.3 257.2 68.3C300 66.3 343 61.7 385.8 67C428.7 72.3 471.3 87.7 514.2 96.3C557 105 600 107 642.8 99.3C685.7 91.7 728.3 74.3 771.2 71.3C814 68.3 857 79.7 878.5 85.3L900 91L900 0L878.5 0C857 0 814 0 771.2 0C728.3 0 685.7 0 642.8 0C600 0 557 0 514.2 0C471.3 0 428.7 0 385.8 0C343 0 300 0 257.2 0C214.3 0 171.7 0 128.8 0C86 0 43 0 21.5 0L0 0Z" fill="#153843"></path><path d="M0 59L21.5 55.5C43 52 86 45 128.8 45.5C171.7 46 214.3 54 257.2 59.7C300 65.3 343 68.7 385.8 69.5C428.7 70.3 471.3 68.7 514.2 66.5C557 64.3 600 61.7 642.8 59.5C685.7 57.3 728.3 55.7 771.2 52.3C814 49 857 44 878.5 41.5L900 39L900 0L878.5 0C857 0 814 0 771.2 0C728.3 0 685.7 0 642.8 0C600 0 557 0 514.2 0C471.3 0 428.7 0 385.8 0C343 0 300 0 257.2 0C214.3 0 171.7 0 128.8 0C86 0 43 0 21.5 0L0 0Z" fill="#143742"></path></svg>