<svg data-name="Layer 1" viewBox="0 0 32 32" xmlns="http://www.w3.org/2000/svg"><path d="M9 11H4a1 1 0 0 0-1 1v15.9a1 1 0 0 0 1 1h5a1 1 0 0 0 1-1V12a1 1 0 0 0-1-1ZM8 26.9H5V13h3Z" fill="#85a4b5" class="fill-4d4d4d"></path><path d="M6.5 3.5A3.5 3.5 0 1 0 10 7a3.5 3.5 0 0 0-3.5-3.5Zm0 5A1.5 1.5 0 1 1 8 7a1.5 1.5 0 0 1-1.5 1.5ZM23 11a8.28 8.28 0 0 0-4 1 1 1 0 0 0-1-1h-5a1 1 0 0 0-1 1v16a1 1 0 0 0 1 1h5a1 1 0 0 0 1-1v-8c0-1 .56-2 1.5-2s1.5 1 1.5 2v8a1 1 0 0 0 1 1h5a1 1 0 0 0 1-1V18c0-1.82-1.1-7-6-7Zm4 16h-3v-7a3.74 3.74 0 0 0-3.5-4 3.74 3.74 0 0 0-3.5 4v7h-3V13h3v1a1 1 0 0 0 1.79.61A5.38 5.38 0 0 1 23 13c3.83 0 4 4.95 4 5Z" fill="#85a4b5" class="fill-4d4d4d"></path></svg>