<svg id="visual" viewBox="0 0 900 600" width="900" height="600" xmlns="http://www.w3.org/2000/svg" xmlns:xlink="http://www.w3.org/1999/xlink" version="1.1"><path d="M0 85L13.7 80C27.3 75 54.7 65 82 59C109.3 53 136.7 51 163.8 61C191 71 218 93 245.2 100C272.3 107 299.7 99 327 96C354.3 93 381.7 95 409 91C436.3 87 463.7 77 491 76C518.3 75 545.7 83 573 92C600.3 101 627.7 111 654.8 110C682 109 709 97 736.2 84C763.3 71 790.7 57 818 62C845.3 67 872.7 91 886.3 103L900 115L900 0L886.3 0C872.7 0 845.3 0 818 0C790.7 0 763.3 0 736.2 0C709 0 682 0 654.8 0C627.7 0 600.3 0 573 0C545.7 0 518.3 0 491 0C463.7 0 436.3 0 409 0C381.7 0 354.3 0 327 0C299.7 0 272.3 0 245.2 0C218 0 191 0 163.8 0C136.7 0 109.3 0 82 0C54.7 0 27.3 0 13.7 0L0 0Z" fill="#051e26"></path><path d="M0 187L13.7 174C27.3 161 54.7 135 82 118C109.3 101 136.7 93 163.8 108C191 123 218 161 245.2 178C272.3 195 299.7 191 327 188C354.3 185 381.7 183 409 171C436.3 159 463.7 137 491 131C518.3 125 545.7 135 573 144C600.3 153 627.7 161 654.8 164C682 167 709 165 736.2 158C763.3 151 790.7 139 818 139C845.3 139 872.7 151 886.3 157L900 163L900 113L886.3 101C872.7 89 845.3 65 818 60C790.7 55 763.3 69 736.2 82C709 95 682 107 654.8 108C627.7 109 600.3 99 573 90C545.7 81 518.3 73 491 74C463.7 75 436.3 85 409 89C381.7 93 354.3 91 327 94C299.7 97 272.3 105 245.2 98C218 91 191 69 163.8 59C136.7 49 109.3 51 82 57C54.7 63 27.3 73 13.7 78L0 83Z" fill="#03222c"></path><path d="M0 397L13.7 385C27.3 373 54.7 349 82 327C109.3 305 136.7 285 163.8 284C191 283 218 301 245.2 321C272.3 341 299.7 363 327 353C354.3 343 381.7 301 409 281C436.3 261 463.7 263 491 264C518.3 265 545.7 265 573 266C600.3 267 627.7 269 654.8 264C682 259 709 247 736.2 253C763.3 259 790.7 283 818 287C845.3 291 872.7 275 886.3 267L900 259L900 161L886.3 155C872.7 149 845.3 137 818 137C790.7 137 763.3 149 736.2 156C709 163 682 165 654.8 162C627.7 159 600.3 151 573 142C545.7 133 518.3 123 491 129C463.7 135 436.3 157 409 169C381.7 181 354.3 183 327 186C299.7 189 272.3 193 245.2 176C218 159 191 121 163.8 106C136.7 91 109.3 99 82 116C54.7 133 27.3 159 13.7 172L0 185Z" fill="#002733"></path><path d="M0 523L13.7 510C27.3 497 54.7 471 82 464C109.3 457 136.7 469 163.8 486C191 503 218 525 245.2 528C272.3 531 299.7 515 327 501C354.3 487 381.7 475 409 475C436.3 475 463.7 487 491 491C518.3 495 545.7 491 573 496C600.3 501 627.7 515 654.8 508C682 501 709 473 736.2 473C763.3 473 790.7 501 818 517C845.3 533 872.7 537 886.3 539L900 541L900 257L886.3 265C872.7 273 845.3 289 818 285C790.7 281 763.3 257 736.2 251C709 245 682 257 654.8 262C627.7 267 600.3 265 573 264C545.7 263 518.3 263 491 262C463.7 261 436.3 259 409 279C381.7 299 354.3 341 327 351C299.7 361 272.3 339 245.2 319C218 299 191 281 163.8 282C136.7 283 109.3 303 82 325C54.7 347 27.3 371 13.7 383L0 395Z" fill="#003f50"></path><path d="M0 601L13.7 601C27.3 601 54.7 601 82 601C109.3 601 136.7 601 163.8 601C191 601 218 601 245.2 601C272.3 601 299.7 601 327 601C354.3 601 381.7 601 409 601C436.3 601 463.7 601 491 601C518.3 601 545.7 601 573 601C600.3 601 627.7 601 654.8 601C682 601 709 601 736.2 601C763.3 601 790.7 601 818 601C845.3 601 872.7 601 886.3 601L900 601L900 539L886.3 537C872.7 535 845.3 531 818 515C790.7 499 763.3 471 736.2 471C709 471 682 499 654.8 506C627.7 513 600.3 499 573 494C545.7 489 518.3 493 491 489C463.7 485 436.3 473 409 473C381.7 473 354.3 485 327 499C299.7 513 272.3 529 245.2 526C218 523 191 501 163.8 484C136.7 467 109.3 455 82 462C54.7 469 27.3 495 13.7 508L0 521Z" fill="#015870"></path></svg>