<svg id="visual" viewBox="0 0 900 600" width="900" height="600" xmlns="http://www.w3.org/2000/svg" xmlns:xlink="http://www.w3.org/1999/xlink" version="1.1"><rect x="0" y="0" width="900" height="600" fill="#001520"></rect><path d="M0 370L21.5 368C43 366 86 362 128.8 370C171.7 378 214.3 398 257.2 401C300 404 343 390 385.8 390.7C428.7 391.3 471.3 406.7 514.2 407.7C557 408.7 600 395.3 642.8 385.3C685.7 375.3 728.3 368.7 771.2 365.5C814 362.3 857 362.7 878.5 362.8L900 363L900 601L878.5 601C857 601 814 601 771.2 601C728.3 601 685.7 601 642.8 601C600 601 557 601 514.2 601C471.3 601 428.7 601 385.8 601C343 601 300 601 257.2 601C214.3 601 171.7 601 128.8 601C86 601 43 601 21.5 601L0 601Z" fill="#1a3d47"></path><path d="M0 475L21.5 461.7C43 448.3 86 421.7 128.8 417.2C171.7 412.7 214.3 430.3 257.2 431.2C300 432 343 416 385.8 416.2C428.7 416.3 471.3 432.7 514.2 445.8C557 459 600 469 642.8 470.8C685.7 472.7 728.3 466.3 771.2 463.7C814 461 857 462 878.5 462.5L900 463L900 601L878.5 601C857 601 814 601 771.2 601C728.3 601 685.7 601 642.8 601C600 601 557 601 514.2 601C471.3 601 428.7 601 385.8 601C343 601 300 601 257.2 601C214.3 601 171.7 601 128.8 601C86 601 43 601 21.5 601L0 601Z" fill="#143742"></path><path d="M0 458L21.5 463.8C43 469.7 86 481.3 128.8 479.5C171.7 477.7 214.3 462.3 257.2 459.3C300 456.3 343 465.7 385.8 471.8C428.7 478 471.3 481 514.2 477C557 473 600 462 642.8 464C685.7 466 728.3 481 771.2 486.3C814 491.7 857 487.3 878.5 485.2L900 483L900 601L878.5 601C857 601 814 601 771.2 601C728.3 601 685.7 601 642.8 601C600 601 557 601 514.2 601C471.3 601 428.7 601 385.8 601C343 601 300 601 257.2 601C214.3 601 171.7 601 128.8 601C86 601 43 601 21.5 601L0 601Z" fill="#0d323d"></path><path d="M0 510L21.5 505.8C43 501.7 86 493.3 128.8 493.3C171.7 493.3 214.3 501.7 257.2 508.7C300 515.7 343 521.3 385.8 517.2C428.7 513 471.3 499 514.2 494.8C557 490.7 600 496.3 642.8 502.8C685.7 509.3 728.3 516.7 771.2 521.5C814 526.3 857 528.7 878.5 529.8L900 531L900 601L878.5 601C857 601 814 601 771.2 601C728.3 601 685.7 601 642.8 601C600 601 557 601 514.2 601C471.3 601 428.7 601 385.8 601C343 601 300 601 257.2 601C214.3 601 171.7 601 128.8 601C86 601 43 601 21.5 601L0 601Z" fill="#062c38"></path><path d="M0 546L21.5 544.7C43 543.3 86 540.7 128.8 545.2C171.7 549.7 214.3 561.3 257.2 565.7C300 570 343 567 385.8 564.3C428.7 561.7 471.3 559.3 514.2 560.2C557 561 600 565 642.8 566.8C685.7 568.7 728.3 568.3 771.2 567.3C814 566.3 857 564.7 878.5 563.8L900 563L900 601L878.5 601C857 601 814 601 771.2 601C728.3 601 685.7 601 642.8 601C600 601 557 601 514.2 601C471.3 601 428.7 601 385.8 601C343 601 300 601 257.2 601C214.3 601 171.7 601 128.8 601C86 601 43 601 21.5 601L0 601Z" fill="#002733"></path></svg>